<svg xmlns="http://www.w3.org/2000/svg" xmlns:xlink="http://www.w3.org/1999/xlink" width="280" height="70" zoomAndPan="magnify" viewBox="0 0 210 52.499999" preserveAspectRatio="xMidYMid meet" version="1.0"><a href="#"><defs><g/></defs><g fill="#ff00ff" fill-opacity="1"><g transform="translate(24.657417, 15.175747)"><g><path d="M 8.273438 -5.023438 L 8.273438 -0.847656 L 2.175781 -0.839844 C 2.0625 -0.859375 1.945312 -0.921875 1.855469 -1.015625 C 1.730469 -1.140625 1.667969 -1.285156 1.667969 -1.460938 L 1.667969 -5.023438 L 0.828125 -5.023438 L 0.828125 -1.460938 C 0.828125 -1.054688 0.972656 -0.714844 1.261719 -0.425781 C 1.542969 -0.132812 1.886719 0 2.300781 0 L 9.113281 0 L 9.113281 -5.023438 Z M 8.273438 -5.023438 "/></g></g></g><g fill="#ff00ff" fill-opacity="1"><g transform="translate(34.597728, 15.175747)"><g><path d="M 1.65625 -5.023438 L 0.828125 -5.023438 L 0.828125 0 L 1.667969 0 Z M 1.65625 -5.023438 "/></g></g></g><g fill="#ff00ff" fill-opacity="1"><g transform="translate(37.093161, 15.175747)"><g><path d="M 8.679688 -4.597656 C 8.386719 -4.886719 8.058594 -5.023438 7.644531 -5.023438 L 2.289062 -5.023438 C 1.875 -5.023438 1.542969 -4.886719 1.261719 -4.597656 C 0.972656 -4.296875 0.828125 -3.976562 0.828125 -3.582031 L 0.828125 -1.460938 C 0.828125 -1.054688 0.972656 -0.714844 1.261719 -0.425781 C 1.542969 -0.132812 1.886719 0 2.300781 0 L 7.652344 0 C 8.066406 0 8.398438 -0.132812 8.679688 -0.425781 C 8.96875 -0.726562 9.113281 -1.054688 9.113281 -1.460938 L 9.113281 -3.5625 C 9.113281 -3.964844 8.96875 -4.308594 8.679688 -4.597656 Z M 8.089844 -1.023438 C 7.964844 -0.902344 7.820312 -0.839844 7.644531 -0.839844 L 2.175781 -0.839844 C 2.0625 -0.859375 1.945312 -0.921875 1.855469 -1.015625 C 1.730469 -1.140625 1.667969 -1.285156 1.667969 -1.460938 L 1.667969 -3.5625 C 1.667969 -3.738281 1.730469 -3.882812 1.855469 -4.007812 C 1.976562 -4.132812 2.125 -4.195312 2.300781 -4.195312 L 7.644531 -4.195312 C 7.820312 -4.195312 7.964844 -4.132812 8.089844 -4.007812 C 8.210938 -3.882812 8.273438 -3.738281 8.273438 -3.5625 L 8.273438 -1.460938 C 8.273438 -1.292969 8.210938 -1.148438 8.089844 -1.023438 Z M 8.089844 -1.023438 "/></g></g></g><g fill="#ff00ff" fill-opacity="1"><g transform="translate(47.033472, 15.175747)"><g><path d="M 3.335938 -0.839844 C 2.867188 -0.839844 2.476562 -1.003906 2.152344 -1.324219 C 1.824219 -1.65625 1.667969 -2.050781 1.667969 -2.507812 L 1.667969 -5.023438 L 0.828125 -5.023438 L 0.828125 -2.507812 C 0.828125 -1.824219 1.078125 -1.230469 1.5625 -0.734375 C 2.050781 -0.25 2.640625 0 3.335938 0 L 9.113281 0 L 9.113281 -0.839844 Z M 3.335938 -0.839844 "/></g></g></g><g fill="#ff00ff" fill-opacity="1"><g transform="translate(56.973782, 15.175747)"><g><path d="M 1.855469 -4.007812 C 1.945312 -4.101562 2.0625 -4.164062 2.175781 -4.183594 L 9.113281 -4.183594 L 9.113281 -5.023438 L 2.300781 -5.023438 C 1.886719 -5.023438 1.542969 -4.886719 1.261719 -4.597656 C 0.972656 -4.296875 0.828125 -3.964844 0.828125 -3.5625 L 0.828125 -1.460938 C 0.828125 -1.054688 0.972656 -0.726562 1.261719 -0.425781 C 1.542969 -0.132812 1.886719 0 2.300781 0 L 9.113281 0 L 9.113281 -0.839844 L 2.175781 -0.839844 C 2.0625 -0.859375 1.945312 -0.921875 1.855469 -1.015625 C 1.730469 -1.140625 1.667969 -1.285156 1.667969 -1.460938 L 1.667969 -2.09375 L 8.234375 -2.09375 L 8.234375 -2.929688 L 1.667969 -2.929688 L 1.667969 -3.5625 C 1.667969 -3.738281 1.730469 -3.882812 1.855469 -4.007812 Z M 1.855469 -4.007812 "/></g></g></g><g fill="#ff00ff" fill-opacity="1"><g transform="translate(66.914093, 15.175747)"><g><path d="M 9.113281 -5.023438 L 9.113281 -4.183594 L 5.40625 -4.183594 L 5.40625 0 L 4.566406 0 L 4.566406 -4.183594 L 0.828125 -4.183594 L 0.828125 -5.023438 Z M 9.113281 -5.023438 "/></g></g></g><g fill="#ff00ff" fill-opacity="1"><g transform="translate(76.854403, 15.175747)"><g><path d="M 10.75 -4.609375 C 10.46875 -4.898438 10.140625 -5.03125 9.726562 -5.03125 L 2.300781 -5.03125 C 1.886719 -5.03125 1.542969 -4.898438 1.261719 -4.609375 C 0.972656 -4.308594 0.828125 -3.976562 0.828125 -3.574219 L 0.828125 0 L 1.667969 0 L 1.667969 -3.574219 C 1.667969 -3.75 1.730469 -3.894531 1.855469 -4.019531 C 1.945312 -4.113281 2.0625 -4.171875 2.175781 -4.195312 L 5.59375 -4.195312 L 5.59375 0 L 6.429688 0 L 6.421875 -4.195312 L 9.714844 -4.195312 C 9.890625 -4.195312 10.035156 -4.132812 10.160156 -4.007812 C 10.285156 -3.882812 10.347656 -3.738281 10.347656 -3.574219 L 10.347656 0 L 11.183594 0 L 11.183594 -3.574219 C 11.183594 -3.976562 11.039062 -4.308594 10.75 -4.609375 Z M 10.75 -4.609375 "/></g></g></g><g fill="#ff00ff" fill-opacity="1"><g transform="translate(88.865609, 15.175747)"><g><path d="M 8.679688 -4.597656 C 8.398438 -4.886719 8.066406 -5.023438 7.652344 -5.023438 L 2.300781 -5.023438 C 1.886719 -5.023438 1.542969 -4.886719 1.261719 -4.597656 C 0.972656 -4.296875 0.828125 -3.964844 0.828125 -3.5625 L 0.828125 0 L 1.667969 0 L 1.667969 -2.09375 L 8.273438 -2.09375 L 8.273438 0 L 9.113281 0 L 9.113281 -3.5625 C 9.113281 -3.964844 8.96875 -4.296875 8.679688 -4.597656 Z M 8.273438 -2.929688 L 1.667969 -2.929688 L 1.667969 -3.5625 C 1.667969 -3.738281 1.730469 -3.882812 1.855469 -4.007812 C 1.945312 -4.101562 2.0625 -4.164062 2.175781 -4.183594 L 7.644531 -4.183594 C 7.820312 -4.183594 7.964844 -4.121094 8.089844 -3.996094 C 8.210938 -3.875 8.273438 -3.726562 8.273438 -3.5625 Z M 8.273438 -2.929688 "/></g></g></g><g fill="#ff00ff" fill-opacity="1"><g transform="translate(98.805919, 15.175747)"><g><path d="M 8.894531 -2.785156 C 9.042969 -3.023438 9.113281 -3.273438 9.113281 -3.5625 C 9.113281 -3.957031 8.96875 -4.296875 8.679688 -4.585938 C 8.398438 -4.878906 8.058594 -5.023438 7.644531 -5.023438 L 0.828125 -5.023438 L 0.828125 0 L 1.667969 0 L 1.667969 -2.09375 L 6.605469 -2.09375 C 7.0625 -2.09375 7.457031 -1.925781 7.789062 -1.605469 C 8.109375 -1.273438 8.273438 -0.878906 8.273438 -0.425781 L 8.273438 0 L 9.113281 0 L 9.113281 -0.425781 C 9.113281 -1.148438 8.84375 -1.761719 8.316406 -2.257812 C 8.554688 -2.382812 8.75 -2.558594 8.894531 -2.785156 Z M 8.089844 -3.117188 C 7.964844 -2.992188 7.820312 -2.929688 7.644531 -2.929688 L 1.667969 -2.929688 L 1.667969 -4.183594 L 7.644531 -4.183594 C 7.820312 -4.183594 7.964844 -4.121094 8.089844 -3.996094 C 8.210938 -3.875 8.273438 -3.726562 8.273438 -3.5625 C 8.273438 -3.386719 8.210938 -3.230469 8.089844 -3.117188 Z M 8.089844 -3.117188 "/></g></g></g><g fill="#ff00ff" fill-opacity="1"><g transform="translate(108.74623, 15.175747)"><g><path d="M 8.679688 -2.496094 C 8.429688 -2.753906 8.128906 -2.898438 7.765625 -2.929688 L 8.863281 -5.023438 L 7.933594 -5.023438 L 6.835938 -2.929688 L 1.667969 -2.929688 L 1.667969 -3.5625 L 1.65625 -5.023438 L 0.828125 -5.023438 L 0.828125 0 L 1.667969 0 L 1.667969 -2.09375 L 7.644531 -2.09375 C 7.820312 -2.09375 7.964844 -2.03125 8.089844 -1.90625 C 8.210938 -1.792969 8.273438 -1.636719 8.273438 -1.460938 L 8.273438 0 L 9.113281 0 L 9.113281 -1.460938 C 9.113281 -1.875 8.96875 -2.214844 8.679688 -2.496094 Z M 8.679688 -2.496094 "/></g></g></g><g fill="#ff00ff" fill-opacity="1"><g transform="translate(118.68654, 15.175747)"><g><path d="M 1.855469 -4.007812 C 1.945312 -4.101562 2.0625 -4.164062 2.175781 -4.183594 L 9.113281 -4.183594 L 9.113281 -5.023438 L 2.300781 -5.023438 C 1.886719 -5.023438 1.542969 -4.886719 1.261719 -4.597656 C 0.972656 -4.296875 0.828125 -3.964844 0.828125 -3.5625 L 0.828125 -1.460938 C 0.828125 -1.054688 0.972656 -0.726562 1.261719 -0.425781 C 1.542969 -0.132812 1.886719 0 2.300781 0 L 9.113281 0 L 9.113281 -0.839844 L 2.175781 -0.839844 C 2.0625 -0.859375 1.945312 -0.921875 1.855469 -1.015625 C 1.730469 -1.140625 1.667969 -1.285156 1.667969 -1.460938 L 1.667969 -2.09375 L 8.234375 -2.09375 L 8.234375 -2.929688 L 1.667969 -2.929688 L 1.667969 -3.5625 C 1.667969 -3.738281 1.730469 -3.882812 1.855469 -4.007812 Z M 1.855469 -4.007812 "/></g></g></g><g fill="#ff00ff" fill-opacity="1"><g transform="translate(128.626851, 15.175747)"><g><path d="M 9.113281 -5.023438 L 9.113281 -4.183594 L 5.40625 -4.183594 L 5.40625 0 L 4.566406 0 L 4.566406 -4.183594 L 0.828125 -4.183594 L 0.828125 -5.023438 Z M 9.113281 -5.023438 "/></g></g></g><g fill="#ff00ff" fill-opacity="1"><g transform="translate(138.567161, 15.175747)"><g><path d="M 8.679688 -4.585938 C 8.398438 -4.878906 8.058594 -5.023438 7.644531 -5.023438 L 0.828125 -5.023438 L 0.828125 0 L 1.667969 0 L 1.667969 -2.09375 L 7.644531 -2.09375 C 8.058594 -2.09375 8.398438 -2.238281 8.679688 -2.527344 C 8.96875 -2.804688 9.113281 -3.148438 9.113281 -3.5625 C 9.113281 -3.957031 8.96875 -4.296875 8.679688 -4.585938 Z M 8.089844 -3.117188 C 7.964844 -2.992188 7.820312 -2.929688 7.644531 -2.929688 L 1.667969 -2.929688 L 1.667969 -4.183594 L 7.644531 -4.183594 C 7.820312 -4.183594 7.964844 -4.121094 8.089844 -3.996094 C 8.210938 -3.875 8.273438 -3.726562 8.273438 -3.5625 C 8.273438 -3.386719 8.210938 -3.230469 8.089844 -3.117188 Z M 8.089844 -3.117188 "/></g></g></g><g fill="#ff00ff" fill-opacity="1"><g transform="translate(148.507472, 15.175747)"><g><path d="M 3.335938 -0.839844 C 2.867188 -0.839844 2.476562 -1.003906 2.152344 -1.324219 C 1.824219 -1.65625 1.667969 -2.050781 1.667969 -2.507812 L 1.667969 -5.023438 L 0.828125 -5.023438 L 0.828125 -2.507812 C 0.828125 -1.824219 1.078125 -1.230469 1.5625 -0.734375 C 2.050781 -0.25 2.640625 0 3.335938 0 L 9.113281 0 L 9.113281 -0.839844 Z M 3.335938 -0.839844 "/></g></g></g><g fill="#ff00ff" fill-opacity="1"><g transform="translate(158.447782, 15.175747)"><g><path d="M 8.679688 -4.597656 C 8.398438 -4.886719 8.066406 -5.023438 7.652344 -5.023438 L 2.300781 -5.023438 C 1.886719 -5.023438 1.542969 -4.886719 1.261719 -4.597656 C 0.972656 -4.296875 0.828125 -3.964844 0.828125 -3.5625 L 0.828125 0 L 1.667969 0 L 1.667969 -2.09375 L 8.273438 -2.09375 L 8.273438 0 L 9.113281 0 L 9.113281 -3.5625 C 9.113281 -3.964844 8.96875 -4.296875 8.679688 -4.597656 Z M 8.273438 -2.929688 L 1.667969 -2.929688 L 1.667969 -3.5625 C 1.667969 -3.738281 1.730469 -3.882812 1.855469 -4.007812 C 1.945312 -4.101562 2.0625 -4.164062 2.175781 -4.183594 L 7.644531 -4.183594 C 7.820312 -4.183594 7.964844 -4.121094 8.089844 -3.996094 C 8.210938 -3.875 8.273438 -3.726562 8.273438 -3.5625 Z M 8.273438 -2.929688 "/></g></g></g><g fill="#ff00ff" fill-opacity="1"><g transform="translate(168.388093, 15.175747)"><g><path d="M 8.273438 -1.460938 C 8.273438 -1.292969 8.210938 -1.148438 8.089844 -1.023438 C 7.964844 -0.902344 7.820312 -0.839844 7.644531 -0.839844 L 2.175781 -0.839844 C 2.0625 -0.859375 1.945312 -0.921875 1.855469 -1.015625 C 1.730469 -1.140625 1.667969 -1.285156 1.667969 -1.460938 L 1.667969 -3.5625 C 1.667969 -3.738281 1.730469 -3.882812 1.855469 -4.007812 C 1.976562 -4.132812 2.125 -4.195312 2.300781 -4.195312 L 7.644531 -4.195312 C 7.820312 -4.195312 7.964844 -4.132812 8.089844 -4.007812 C 8.210938 -3.882812 8.273438 -3.738281 8.273438 -3.5625 L 9.113281 -3.5625 C 9.113281 -3.964844 8.96875 -4.308594 8.679688 -4.597656 C 8.386719 -4.886719 8.058594 -5.023438 7.644531 -5.023438 L 2.289062 -5.023438 C 1.875 -5.023438 1.542969 -4.886719 1.261719 -4.597656 C 0.972656 -4.296875 0.828125 -3.976562 0.828125 -3.582031 L 0.828125 -1.460938 C 0.828125 -1.054688 0.972656 -0.714844 1.261719 -0.425781 C 1.542969 -0.132812 1.886719 0 2.300781 0 L 7.652344 0 C 8.066406 0 8.398438 -0.132812 8.679688 -0.425781 C 8.96875 -0.726562 9.113281 -1.054688 9.113281 -1.460938 Z M 8.273438 -1.460938 "/></g></g></g><g fill="#ff00ff" fill-opacity="1"><g transform="translate(178.328403, 15.175747)"><g><path d="M 1.855469 -4.007812 C 1.945312 -4.101562 2.0625 -4.164062 2.175781 -4.183594 L 9.113281 -4.183594 L 9.113281 -5.023438 L 2.300781 -5.023438 C 1.886719 -5.023438 1.542969 -4.886719 1.261719 -4.597656 C 0.972656 -4.296875 0.828125 -3.964844 0.828125 -3.5625 L 0.828125 -1.460938 C 0.828125 -1.054688 0.972656 -0.726562 1.261719 -0.425781 C 1.542969 -0.132812 1.886719 0 2.300781 0 L 9.113281 0 L 9.113281 -0.839844 L 2.175781 -0.839844 C 2.0625 -0.859375 1.945312 -0.921875 1.855469 -1.015625 C 1.730469 -1.140625 1.667969 -1.285156 1.667969 -1.460938 L 1.667969 -2.09375 L 8.234375 -2.09375 L 8.234375 -2.929688 L 1.667969 -2.929688 L 1.667969 -3.5625 C 1.667969 -3.738281 1.730469 -3.882812 1.855469 -4.007812 Z M 1.855469 -4.007812 "/></g></g></g><g fill="#00ffff" fill-opacity="1"><g transform="translate(25.834309, 14.815935)"><g><path d="M 8.273438 -5.023438 L 8.273438 -0.847656 L 2.175781 -0.839844 C 2.0625 -0.859375 1.945312 -0.921875 1.855469 -1.015625 C 1.730469 -1.140625 1.667969 -1.285156 1.667969 -1.460938 L 1.667969 -5.023438 L 0.828125 -5.023438 L 0.828125 -1.460938 C 0.828125 -1.054688 0.972656 -0.714844 1.261719 -0.425781 C 1.542969 -0.132812 1.886719 0 2.300781 0 L 9.113281 0 L 9.113281 -5.023438 Z M 8.273438 -5.023438 "/></g></g></g><g fill="#00ffff" fill-opacity="1"><g transform="translate(35.774619, 14.815935)"><g><path d="M 1.65625 -5.023438 L 0.828125 -5.023438 L 0.828125 0 L 1.667969 0 Z M 1.65625 -5.023438 "/></g></g></g><g fill="#00ffff" fill-opacity="1"><g transform="translate(38.270053, 14.815935)"><g><path d="M 8.679688 -4.597656 C 8.386719 -4.886719 8.058594 -5.023438 7.644531 -5.023438 L 2.289062 -5.023438 C 1.875 -5.023438 1.542969 -4.886719 1.261719 -4.597656 C 0.972656 -4.296875 0.828125 -3.976562 0.828125 -3.582031 L 0.828125 -1.460938 C 0.828125 -1.054688 0.972656 -0.714844 1.261719 -0.425781 C 1.542969 -0.132812 1.886719 0 2.300781 0 L 7.652344 0 C 8.066406 0 8.398438 -0.132812 8.679688 -0.425781 C 8.96875 -0.726562 9.113281 -1.054688 9.113281 -1.460938 L 9.113281 -3.5625 C 9.113281 -3.964844 8.96875 -4.308594 8.679688 -4.597656 Z M 8.089844 -1.023438 C 7.964844 -0.902344 7.820312 -0.839844 7.644531 -0.839844 L 2.175781 -0.839844 C 2.0625 -0.859375 1.945312 -0.921875 1.855469 -1.015625 C 1.730469 -1.140625 1.667969 -1.285156 1.667969 -1.460938 L 1.667969 -3.5625 C 1.667969 -3.738281 1.730469 -3.882812 1.855469 -4.007812 C 1.976562 -4.132812 2.125 -4.195312 2.300781 -4.195312 L 7.644531 -4.195312 C 7.820312 -4.195312 7.964844 -4.132812 8.089844 -4.007812 C 8.210938 -3.882812 8.273438 -3.738281 8.273438 -3.5625 L 8.273438 -1.460938 C 8.273438 -1.292969 8.210938 -1.148438 8.089844 -1.023438 Z M 8.089844 -1.023438 "/></g></g></g><g fill="#00ffff" fill-opacity="1"><g transform="translate(48.210363, 14.815935)"><g><path d="M 3.335938 -0.839844 C 2.867188 -0.839844 2.476562 -1.003906 2.152344 -1.324219 C 1.824219 -1.65625 1.667969 -2.050781 1.667969 -2.507812 L 1.667969 -5.023438 L 0.828125 -5.023438 L 0.828125 -2.507812 C 0.828125 -1.824219 1.078125 -1.230469 1.5625 -0.734375 C 2.050781 -0.25 2.640625 0 3.335938 0 L 9.113281 0 L 9.113281 -0.839844 Z M 3.335938 -0.839844 "/></g></g></g><g fill="#00ffff" fill-opacity="1"><g transform="translate(58.150674, 14.815935)"><g><path d="M 1.855469 -4.007812 C 1.945312 -4.101562 2.0625 -4.164062 2.175781 -4.183594 L 9.113281 -4.183594 L 9.113281 -5.023438 L 2.300781 -5.023438 C 1.886719 -5.023438 1.542969 -4.886719 1.261719 -4.597656 C 0.972656 -4.296875 0.828125 -3.964844 0.828125 -3.5625 L 0.828125 -1.460938 C 0.828125 -1.054688 0.972656 -0.726562 1.261719 -0.425781 C 1.542969 -0.132812 1.886719 0 2.300781 0 L 9.113281 0 L 9.113281 -0.839844 L 2.175781 -0.839844 C 2.0625 -0.859375 1.945312 -0.921875 1.855469 -1.015625 C 1.730469 -1.140625 1.667969 -1.285156 1.667969 -1.460938 L 1.667969 -2.09375 L 8.234375 -2.09375 L 8.234375 -2.929688 L 1.667969 -2.929688 L 1.667969 -3.5625 C 1.667969 -3.738281 1.730469 -3.882812 1.855469 -4.007812 Z M 1.855469 -4.007812 "/></g></g></g><g fill="#00ffff" fill-opacity="1"><g transform="translate(68.090984, 14.815935)"><g><path d="M 9.113281 -5.023438 L 9.113281 -4.183594 L 5.40625 -4.183594 L 5.40625 0 L 4.566406 0 L 4.566406 -4.183594 L 0.828125 -4.183594 L 0.828125 -5.023438 Z M 9.113281 -5.023438 "/></g></g></g><g fill="#00ffff" fill-opacity="1"><g transform="translate(78.031295, 14.815935)"><g><path d="M 10.75 -4.609375 C 10.46875 -4.898438 10.140625 -5.03125 9.726562 -5.03125 L 2.300781 -5.03125 C 1.886719 -5.03125 1.542969 -4.898438 1.261719 -4.609375 C 0.972656 -4.308594 0.828125 -3.976562 0.828125 -3.574219 L 0.828125 0 L 1.667969 0 L 1.667969 -3.574219 C 1.667969 -3.75 1.730469 -3.894531 1.855469 -4.019531 C 1.945312 -4.113281 2.0625 -4.171875 2.175781 -4.195312 L 5.59375 -4.195312 L 5.59375 0 L 6.429688 0 L 6.421875 -4.195312 L 9.714844 -4.195312 C 9.890625 -4.195312 10.035156 -4.132812 10.160156 -4.007812 C 10.285156 -3.882812 10.347656 -3.738281 10.347656 -3.574219 L 10.347656 0 L 11.183594 0 L 11.183594 -3.574219 C 11.183594 -3.976562 11.039062 -4.308594 10.75 -4.609375 Z M 10.75 -4.609375 "/></g></g></g><g fill="#00ffff" fill-opacity="1"><g transform="translate(90.0425, 14.815935)"><g><path d="M 8.679688 -4.597656 C 8.398438 -4.886719 8.066406 -5.023438 7.652344 -5.023438 L 2.300781 -5.023438 C 1.886719 -5.023438 1.542969 -4.886719 1.261719 -4.597656 C 0.972656 -4.296875 0.828125 -3.964844 0.828125 -3.5625 L 0.828125 0 L 1.667969 0 L 1.667969 -2.09375 L 8.273438 -2.09375 L 8.273438 0 L 9.113281 0 L 9.113281 -3.5625 C 9.113281 -3.964844 8.96875 -4.296875 8.679688 -4.597656 Z M 8.273438 -2.929688 L 1.667969 -2.929688 L 1.667969 -3.5625 C 1.667969 -3.738281 1.730469 -3.882812 1.855469 -4.007812 C 1.945312 -4.101562 2.0625 -4.164062 2.175781 -4.183594 L 7.644531 -4.183594 C 7.820312 -4.183594 7.964844 -4.121094 8.089844 -3.996094 C 8.210938 -3.875 8.273438 -3.726562 8.273438 -3.5625 Z M 8.273438 -2.929688 "/></g></g></g><g fill="#00ffff" fill-opacity="1"><g transform="translate(99.982811, 14.815935)"><g><path d="M 8.894531 -2.785156 C 9.042969 -3.023438 9.113281 -3.273438 9.113281 -3.5625 C 9.113281 -3.957031 8.96875 -4.296875 8.679688 -4.585938 C 8.398438 -4.878906 8.058594 -5.023438 7.644531 -5.023438 L 0.828125 -5.023438 L 0.828125 0 L 1.667969 0 L 1.667969 -2.09375 L 6.605469 -2.09375 C 7.0625 -2.09375 7.457031 -1.925781 7.789062 -1.605469 C 8.109375 -1.273438 8.273438 -0.878906 8.273438 -0.425781 L 8.273438 0 L 9.113281 0 L 9.113281 -0.425781 C 9.113281 -1.148438 8.84375 -1.761719 8.316406 -2.257812 C 8.554688 -2.382812 8.75 -2.558594 8.894531 -2.785156 Z M 8.089844 -3.117188 C 7.964844 -2.992188 7.820312 -2.929688 7.644531 -2.929688 L 1.667969 -2.929688 L 1.667969 -4.183594 L 7.644531 -4.183594 C 7.820312 -4.183594 7.964844 -4.121094 8.089844 -3.996094 C 8.210938 -3.875 8.273438 -3.726562 8.273438 -3.5625 C 8.273438 -3.386719 8.210938 -3.230469 8.089844 -3.117188 Z M 8.089844 -3.117188 "/></g></g></g><g fill="#00ffff" fill-opacity="1"><g transform="translate(109.923121, 14.815935)"><g><path d="M 8.679688 -2.496094 C 8.429688 -2.753906 8.128906 -2.898438 7.765625 -2.929688 L 8.863281 -5.023438 L 7.933594 -5.023438 L 6.835938 -2.929688 L 1.667969 -2.929688 L 1.667969 -3.5625 L 1.65625 -5.023438 L 0.828125 -5.023438 L 0.828125 0 L 1.667969 0 L 1.667969 -2.09375 L 7.644531 -2.09375 C 7.820312 -2.09375 7.964844 -2.03125 8.089844 -1.90625 C 8.210938 -1.792969 8.273438 -1.636719 8.273438 -1.460938 L 8.273438 0 L 9.113281 0 L 9.113281 -1.460938 C 9.113281 -1.875 8.96875 -2.214844 8.679688 -2.496094 Z M 8.679688 -2.496094 "/></g></g></g><g fill="#00ffff" fill-opacity="1"><g transform="translate(119.863432, 14.815935)"><g><path d="M 1.855469 -4.007812 C 1.945312 -4.101562 2.0625 -4.164062 2.175781 -4.183594 L 9.113281 -4.183594 L 9.113281 -5.023438 L 2.300781 -5.023438 C 1.886719 -5.023438 1.542969 -4.886719 1.261719 -4.597656 C 0.972656 -4.296875 0.828125 -3.964844 0.828125 -3.5625 L 0.828125 -1.460938 C 0.828125 -1.054688 0.972656 -0.726562 1.261719 -0.425781 C 1.542969 -0.132812 1.886719 0 2.300781 0 L 9.113281 0 L 9.113281 -0.839844 L 2.175781 -0.839844 C 2.0625 -0.859375 1.945312 -0.921875 1.855469 -1.015625 C 1.730469 -1.140625 1.667969 -1.285156 1.667969 -1.460938 L 1.667969 -2.09375 L 8.234375 -2.09375 L 8.234375 -2.929688 L 1.667969 -2.929688 L 1.667969 -3.5625 C 1.667969 -3.738281 1.730469 -3.882812 1.855469 -4.007812 Z M 1.855469 -4.007812 "/></g></g></g><g fill="#00ffff" fill-opacity="1"><g transform="translate(129.803742, 14.815935)"><g><path d="M 9.113281 -5.023438 L 9.113281 -4.183594 L 5.40625 -4.183594 L 5.40625 0 L 4.566406 0 L 4.566406 -4.183594 L 0.828125 -4.183594 L 0.828125 -5.023438 Z M 9.113281 -5.023438 "/></g></g></g><g fill="#00ffff" fill-opacity="1"><g transform="translate(139.744053, 14.815935)"><g><path d="M 8.679688 -4.585938 C 8.398438 -4.878906 8.058594 -5.023438 7.644531 -5.023438 L 0.828125 -5.023438 L 0.828125 0 L 1.667969 0 L 1.667969 -2.09375 L 7.644531 -2.09375 C 8.058594 -2.09375 8.398438 -2.238281 8.679688 -2.527344 C 8.96875 -2.804688 9.113281 -3.148438 9.113281 -3.5625 C 9.113281 -3.957031 8.96875 -4.296875 8.679688 -4.585938 Z M 8.089844 -3.117188 C 7.964844 -2.992188 7.820312 -2.929688 7.644531 -2.929688 L 1.667969 -2.929688 L 1.667969 -4.183594 L 7.644531 -4.183594 C 7.820312 -4.183594 7.964844 -4.121094 8.089844 -3.996094 C 8.210938 -3.875 8.273438 -3.726562 8.273438 -3.5625 C 8.273438 -3.386719 8.210938 -3.230469 8.089844 -3.117188 Z M 8.089844 -3.117188 "/></g></g></g><g fill="#00ffff" fill-opacity="1"><g transform="translate(149.684363, 14.815935)"><g><path d="M 3.335938 -0.839844 C 2.867188 -0.839844 2.476562 -1.003906 2.152344 -1.324219 C 1.824219 -1.65625 1.667969 -2.050781 1.667969 -2.507812 L 1.667969 -5.023438 L 0.828125 -5.023438 L 0.828125 -2.507812 C 0.828125 -1.824219 1.078125 -1.230469 1.5625 -0.734375 C 2.050781 -0.25 2.640625 0 3.335938 0 L 9.113281 0 L 9.113281 -0.839844 Z M 3.335938 -0.839844 "/></g></g></g><g fill="#00ffff" fill-opacity="1"><g transform="translate(159.624674, 14.815935)"><g><path d="M 8.679688 -4.597656 C 8.398438 -4.886719 8.066406 -5.023438 7.652344 -5.023438 L 2.300781 -5.023438 C 1.886719 -5.023438 1.542969 -4.886719 1.261719 -4.597656 C 0.972656 -4.296875 0.828125 -3.964844 0.828125 -3.5625 L 0.828125 0 L 1.667969 0 L 1.667969 -2.09375 L 8.273438 -2.09375 L 8.273438 0 L 9.113281 0 L 9.113281 -3.5625 C 9.113281 -3.964844 8.96875 -4.296875 8.679688 -4.597656 Z M 8.273438 -2.929688 L 1.667969 -2.929688 L 1.667969 -3.5625 C 1.667969 -3.738281 1.730469 -3.882812 1.855469 -4.007812 C 1.945312 -4.101562 2.0625 -4.164062 2.175781 -4.183594 L 7.644531 -4.183594 C 7.820312 -4.183594 7.964844 -4.121094 8.089844 -3.996094 C 8.210938 -3.875 8.273438 -3.726562 8.273438 -3.5625 Z M 8.273438 -2.929688 "/></g></g></g><g fill="#00ffff" fill-opacity="1"><g transform="translate(169.564984, 14.815935)"><g><path d="M 8.273438 -1.460938 C 8.273438 -1.292969 8.210938 -1.148438 8.089844 -1.023438 C 7.964844 -0.902344 7.820312 -0.839844 7.644531 -0.839844 L 2.175781 -0.839844 C 2.0625 -0.859375 1.945312 -0.921875 1.855469 -1.015625 C 1.730469 -1.140625 1.667969 -1.285156 1.667969 -1.460938 L 1.667969 -3.5625 C 1.667969 -3.738281 1.730469 -3.882812 1.855469 -4.007812 C 1.976562 -4.132812 2.125 -4.195312 2.300781 -4.195312 L 7.644531 -4.195312 C 7.820312 -4.195312 7.964844 -4.132812 8.089844 -4.007812 C 8.210938 -3.882812 8.273438 -3.738281 8.273438 -3.5625 L 9.113281 -3.5625 C 9.113281 -3.964844 8.96875 -4.308594 8.679688 -4.597656 C 8.386719 -4.886719 8.058594 -5.023438 7.644531 -5.023438 L 2.289062 -5.023438 C 1.875 -5.023438 1.542969 -4.886719 1.261719 -4.597656 C 0.972656 -4.296875 0.828125 -3.976562 0.828125 -3.582031 L 0.828125 -1.460938 C 0.828125 -1.054688 0.972656 -0.714844 1.261719 -0.425781 C 1.542969 -0.132812 1.886719 0 2.300781 0 L 7.652344 0 C 8.066406 0 8.398438 -0.132812 8.679688 -0.425781 C 8.96875 -0.726562 9.113281 -1.054688 9.113281 -1.460938 Z M 8.273438 -1.460938 "/></g></g></g><g fill="#00ffff" fill-opacity="1"><g transform="translate(179.505295, 14.815935)"><g><path d="M 1.855469 -4.007812 C 1.945312 -4.101562 2.0625 -4.164062 2.175781 -4.183594 L 9.113281 -4.183594 L 9.113281 -5.023438 L 2.300781 -5.023438 C 1.886719 -5.023438 1.542969 -4.886719 1.261719 -4.597656 C 0.972656 -4.296875 0.828125 -3.964844 0.828125 -3.5625 L 0.828125 -1.460938 C 0.828125 -1.054688 0.972656 -0.726562 1.261719 -0.425781 C 1.542969 -0.132812 1.886719 0 2.300781 0 L 9.113281 0 L 9.113281 -0.839844 L 2.175781 -0.839844 C 2.0625 -0.859375 1.945312 -0.921875 1.855469 -1.015625 C 1.730469 -1.140625 1.667969 -1.285156 1.667969 -1.460938 L 1.667969 -2.09375 L 8.234375 -2.09375 L 8.234375 -2.929688 L 1.667969 -2.929688 L 1.667969 -3.5625 C 1.667969 -3.738281 1.730469 -3.882812 1.855469 -4.007812 Z M 1.855469 -4.007812 "/></g></g></g><g fill="#ff1616" fill-opacity="1"><g transform="translate(25.245863, 14.995841)"><g><path d="M 8.273438 -5.023438 L 8.273438 -0.847656 L 2.175781 -0.839844 C 2.0625 -0.859375 1.945312 -0.921875 1.855469 -1.015625 C 1.730469 -1.140625 1.667969 -1.285156 1.667969 -1.460938 L 1.667969 -5.023438 L 0.828125 -5.023438 L 0.828125 -1.460938 C 0.828125 -1.054688 0.972656 -0.714844 1.261719 -0.425781 C 1.542969 -0.132812 1.886719 0 2.300781 0 L 9.113281 0 L 9.113281 -5.023438 Z M 8.273438 -5.023438 "/></g></g></g><g fill="#ff1616" fill-opacity="1"><g transform="translate(35.186174, 14.995841)"><g><path d="M 1.65625 -5.023438 L 0.828125 -5.023438 L 0.828125 0 L 1.667969 0 Z M 1.65625 -5.023438 "/></g></g></g><g fill="#ff1616" fill-opacity="1"><g transform="translate(37.681607, 14.995841)"><g><path d="M 8.679688 -4.597656 C 8.386719 -4.886719 8.058594 -5.023438 7.644531 -5.023438 L 2.289062 -5.023438 C 1.875 -5.023438 1.542969 -4.886719 1.261719 -4.597656 C 0.972656 -4.296875 0.828125 -3.976562 0.828125 -3.582031 L 0.828125 -1.460938 C 0.828125 -1.054688 0.972656 -0.714844 1.261719 -0.425781 C 1.542969 -0.132812 1.886719 0 2.300781 0 L 7.652344 0 C 8.066406 0 8.398438 -0.132812 8.679688 -0.425781 C 8.96875 -0.726562 9.113281 -1.054688 9.113281 -1.460938 L 9.113281 -3.5625 C 9.113281 -3.964844 8.96875 -4.308594 8.679688 -4.597656 Z M 8.089844 -1.023438 C 7.964844 -0.902344 7.820312 -0.839844 7.644531 -0.839844 L 2.175781 -0.839844 C 2.0625 -0.859375 1.945312 -0.921875 1.855469 -1.015625 C 1.730469 -1.140625 1.667969 -1.285156 1.667969 -1.460938 L 1.667969 -3.5625 C 1.667969 -3.738281 1.730469 -3.882812 1.855469 -4.007812 C 1.976562 -4.132812 2.125 -4.195312 2.300781 -4.195312 L 7.644531 -4.195312 C 7.820312 -4.195312 7.964844 -4.132812 8.089844 -4.007812 C 8.210938 -3.882812 8.273438 -3.738281 8.273438 -3.5625 L 8.273438 -1.460938 C 8.273438 -1.292969 8.210938 -1.148438 8.089844 -1.023438 Z M 8.089844 -1.023438 "/></g></g></g><g fill="#ff1616" fill-opacity="1"><g transform="translate(47.621917, 14.995841)"><g><path d="M 3.335938 -0.839844 C 2.867188 -0.839844 2.476562 -1.003906 2.152344 -1.324219 C 1.824219 -1.65625 1.667969 -2.050781 1.667969 -2.507812 L 1.667969 -5.023438 L 0.828125 -5.023438 L 0.828125 -2.507812 C 0.828125 -1.824219 1.078125 -1.230469 1.5625 -0.734375 C 2.050781 -0.25 2.640625 0 3.335938 0 L 9.113281 0 L 9.113281 -0.839844 Z M 3.335938 -0.839844 "/></g></g></g><g fill="#ff1616" fill-opacity="1"><g transform="translate(57.562228, 14.995841)"><g><path d="M 1.855469 -4.007812 C 1.945312 -4.101562 2.0625 -4.164062 2.175781 -4.183594 L 9.113281 -4.183594 L 9.113281 -5.023438 L 2.300781 -5.023438 C 1.886719 -5.023438 1.542969 -4.886719 1.261719 -4.597656 C 0.972656 -4.296875 0.828125 -3.964844 0.828125 -3.5625 L 0.828125 -1.460938 C 0.828125 -1.054688 0.972656 -0.726562 1.261719 -0.425781 C 1.542969 -0.132812 1.886719 0 2.300781 0 L 9.113281 0 L 9.113281 -0.839844 L 2.175781 -0.839844 C 2.0625 -0.859375 1.945312 -0.921875 1.855469 -1.015625 C 1.730469 -1.140625 1.667969 -1.285156 1.667969 -1.460938 L 1.667969 -2.09375 L 8.234375 -2.09375 L 8.234375 -2.929688 L 1.667969 -2.929688 L 1.667969 -3.5625 C 1.667969 -3.738281 1.730469 -3.882812 1.855469 -4.007812 Z M 1.855469 -4.007812 "/></g></g></g><g fill="#ff1616" fill-opacity="1"><g transform="translate(67.502538, 14.995841)"><g><path d="M 9.113281 -5.023438 L 9.113281 -4.183594 L 5.40625 -4.183594 L 5.40625 0 L 4.566406 0 L 4.566406 -4.183594 L 0.828125 -4.183594 L 0.828125 -5.023438 Z M 9.113281 -5.023438 "/></g></g></g><g fill="#ff1616" fill-opacity="1"><g transform="translate(77.442849, 14.995841)"><g><path d="M 10.75 -4.609375 C 10.46875 -4.898438 10.140625 -5.03125 9.726562 -5.03125 L 2.300781 -5.03125 C 1.886719 -5.03125 1.542969 -4.898438 1.261719 -4.609375 C 0.972656 -4.308594 0.828125 -3.976562 0.828125 -3.574219 L 0.828125 0 L 1.667969 0 L 1.667969 -3.574219 C 1.667969 -3.75 1.730469 -3.894531 1.855469 -4.019531 C 1.945312 -4.113281 2.0625 -4.171875 2.175781 -4.195312 L 5.59375 -4.195312 L 5.59375 0 L 6.429688 0 L 6.421875 -4.195312 L 9.714844 -4.195312 C 9.890625 -4.195312 10.035156 -4.132812 10.160156 -4.007812 C 10.285156 -3.882812 10.347656 -3.738281 10.347656 -3.574219 L 10.347656 0 L 11.183594 0 L 11.183594 -3.574219 C 11.183594 -3.976562 11.039062 -4.308594 10.75 -4.609375 Z M 10.75 -4.609375 "/></g></g></g><g fill="#ff1616" fill-opacity="1"><g transform="translate(89.454055, 14.995841)"><g><path d="M 8.679688 -4.597656 C 8.398438 -4.886719 8.066406 -5.023438 7.652344 -5.023438 L 2.300781 -5.023438 C 1.886719 -5.023438 1.542969 -4.886719 1.261719 -4.597656 C 0.972656 -4.296875 0.828125 -3.964844 0.828125 -3.5625 L 0.828125 0 L 1.667969 0 L 1.667969 -2.09375 L 8.273438 -2.09375 L 8.273438 0 L 9.113281 0 L 9.113281 -3.5625 C 9.113281 -3.964844 8.96875 -4.296875 8.679688 -4.597656 Z M 8.273438 -2.929688 L 1.667969 -2.929688 L 1.667969 -3.5625 C 1.667969 -3.738281 1.730469 -3.882812 1.855469 -4.007812 C 1.945312 -4.101562 2.0625 -4.164062 2.175781 -4.183594 L 7.644531 -4.183594 C 7.820312 -4.183594 7.964844 -4.121094 8.089844 -3.996094 C 8.210938 -3.875 8.273438 -3.726562 8.273438 -3.5625 Z M 8.273438 -2.929688 "/></g></g></g><g fill="#ff1616" fill-opacity="1"><g transform="translate(99.394365, 14.995841)"><g><path d="M 8.894531 -2.785156 C 9.042969 -3.023438 9.113281 -3.273438 9.113281 -3.5625 C 9.113281 -3.957031 8.96875 -4.296875 8.679688 -4.585938 C 8.398438 -4.878906 8.058594 -5.023438 7.644531 -5.023438 L 0.828125 -5.023438 L 0.828125 0 L 1.667969 0 L 1.667969 -2.09375 L 6.605469 -2.09375 C 7.0625 -2.09375 7.457031 -1.925781 7.789062 -1.605469 C 8.109375 -1.273438 8.273438 -0.878906 8.273438 -0.425781 L 8.273438 0 L 9.113281 0 L 9.113281 -0.425781 C 9.113281 -1.148438 8.84375 -1.761719 8.316406 -2.257812 C 8.554688 -2.382812 8.75 -2.558594 8.894531 -2.785156 Z M 8.089844 -3.117188 C 7.964844 -2.992188 7.820312 -2.929688 7.644531 -2.929688 L 1.667969 -2.929688 L 1.667969 -4.183594 L 7.644531 -4.183594 C 7.820312 -4.183594 7.964844 -4.121094 8.089844 -3.996094 C 8.210938 -3.875 8.273438 -3.726562 8.273438 -3.5625 C 8.273438 -3.386719 8.210938 -3.230469 8.089844 -3.117188 Z M 8.089844 -3.117188 "/></g></g></g><g fill="#ff1616" fill-opacity="1"><g transform="translate(109.334675, 14.995841)"><g><path d="M 8.679688 -2.496094 C 8.429688 -2.753906 8.128906 -2.898438 7.765625 -2.929688 L 8.863281 -5.023438 L 7.933594 -5.023438 L 6.835938 -2.929688 L 1.667969 -2.929688 L 1.667969 -3.5625 L 1.65625 -5.023438 L 0.828125 -5.023438 L 0.828125 0 L 1.667969 0 L 1.667969 -2.09375 L 7.644531 -2.09375 C 7.820312 -2.09375 7.964844 -2.03125 8.089844 -1.90625 C 8.210938 -1.792969 8.273438 -1.636719 8.273438 -1.460938 L 8.273438 0 L 9.113281 0 L 9.113281 -1.460938 C 9.113281 -1.875 8.96875 -2.214844 8.679688 -2.496094 Z M 8.679688 -2.496094 "/></g></g></g><g fill="#ff1616" fill-opacity="1"><g transform="translate(119.274986, 14.995841)"><g><path d="M 1.855469 -4.007812 C 1.945312 -4.101562 2.0625 -4.164062 2.175781 -4.183594 L 9.113281 -4.183594 L 9.113281 -5.023438 L 2.300781 -5.023438 C 1.886719 -5.023438 1.542969 -4.886719 1.261719 -4.597656 C 0.972656 -4.296875 0.828125 -3.964844 0.828125 -3.5625 L 0.828125 -1.460938 C 0.828125 -1.054688 0.972656 -0.726562 1.261719 -0.425781 C 1.542969 -0.132812 1.886719 0 2.300781 0 L 9.113281 0 L 9.113281 -0.839844 L 2.175781 -0.839844 C 2.0625 -0.859375 1.945312 -0.921875 1.855469 -1.015625 C 1.730469 -1.140625 1.667969 -1.285156 1.667969 -1.460938 L 1.667969 -2.09375 L 8.234375 -2.09375 L 8.234375 -2.929688 L 1.667969 -2.929688 L 1.667969 -3.5625 C 1.667969 -3.738281 1.730469 -3.882812 1.855469 -4.007812 Z M 1.855469 -4.007812 "/></g></g></g><g fill="#ff1616" fill-opacity="1"><g transform="translate(129.215296, 14.995841)"><g><path d="M 9.113281 -5.023438 L 9.113281 -4.183594 L 5.40625 -4.183594 L 5.40625 0 L 4.566406 0 L 4.566406 -4.183594 L 0.828125 -4.183594 L 0.828125 -5.023438 Z M 9.113281 -5.023438 "/></g></g></g><g fill="#ff1616" fill-opacity="1"><g transform="translate(139.155607, 14.995841)"><g><path d="M 8.679688 -4.585938 C 8.398438 -4.878906 8.058594 -5.023438 7.644531 -5.023438 L 0.828125 -5.023438 L 0.828125 0 L 1.667969 0 L 1.667969 -2.09375 L 7.644531 -2.09375 C 8.058594 -2.09375 8.398438 -2.238281 8.679688 -2.527344 C 8.96875 -2.804688 9.113281 -3.148438 9.113281 -3.5625 C 9.113281 -3.957031 8.96875 -4.296875 8.679688 -4.585938 Z M 8.089844 -3.117188 C 7.964844 -2.992188 7.820312 -2.929688 7.644531 -2.929688 L 1.667969 -2.929688 L 1.667969 -4.183594 L 7.644531 -4.183594 C 7.820312 -4.183594 7.964844 -4.121094 8.089844 -3.996094 C 8.210938 -3.875 8.273438 -3.726562 8.273438 -3.5625 C 8.273438 -3.386719 8.210938 -3.230469 8.089844 -3.117188 Z M 8.089844 -3.117188 "/></g></g></g><g fill="#ff1616" fill-opacity="1"><g transform="translate(149.095917, 14.995841)"><g><path d="M 3.335938 -0.839844 C 2.867188 -0.839844 2.476562 -1.003906 2.152344 -1.324219 C 1.824219 -1.65625 1.667969 -2.050781 1.667969 -2.507812 L 1.667969 -5.023438 L 0.828125 -5.023438 L 0.828125 -2.507812 C 0.828125 -1.824219 1.078125 -1.230469 1.5625 -0.734375 C 2.050781 -0.25 2.640625 0 3.335938 0 L 9.113281 0 L 9.113281 -0.839844 Z M 3.335938 -0.839844 "/></g></g></g><g fill="#ff1616" fill-opacity="1"><g transform="translate(159.036228, 14.995841)"><g><path d="M 8.679688 -4.597656 C 8.398438 -4.886719 8.066406 -5.023438 7.652344 -5.023438 L 2.300781 -5.023438 C 1.886719 -5.023438 1.542969 -4.886719 1.261719 -4.597656 C 0.972656 -4.296875 0.828125 -3.964844 0.828125 -3.5625 L 0.828125 0 L 1.667969 0 L 1.667969 -2.09375 L 8.273438 -2.09375 L 8.273438 0 L 9.113281 0 L 9.113281 -3.5625 C 9.113281 -3.964844 8.96875 -4.296875 8.679688 -4.597656 Z M 8.273438 -2.929688 L 1.667969 -2.929688 L 1.667969 -3.5625 C 1.667969 -3.738281 1.730469 -3.882812 1.855469 -4.007812 C 1.945312 -4.101562 2.0625 -4.164062 2.175781 -4.183594 L 7.644531 -4.183594 C 7.820312 -4.183594 7.964844 -4.121094 8.089844 -3.996094 C 8.210938 -3.875 8.273438 -3.726562 8.273438 -3.5625 Z M 8.273438 -2.929688 "/></g></g></g><g fill="#ff1616" fill-opacity="1"><g transform="translate(168.976538, 14.995841)"><g><path d="M 8.273438 -1.460938 C 8.273438 -1.292969 8.210938 -1.148438 8.089844 -1.023438 C 7.964844 -0.902344 7.820312 -0.839844 7.644531 -0.839844 L 2.175781 -0.839844 C 2.0625 -0.859375 1.945312 -0.921875 1.855469 -1.015625 C 1.730469 -1.140625 1.667969 -1.285156 1.667969 -1.460938 L 1.667969 -3.5625 C 1.667969 -3.738281 1.730469 -3.882812 1.855469 -4.007812 C 1.976562 -4.132812 2.125 -4.195312 2.300781 -4.195312 L 7.644531 -4.195312 C 7.820312 -4.195312 7.964844 -4.132812 8.089844 -4.007812 C 8.210938 -3.882812 8.273438 -3.738281 8.273438 -3.5625 L 9.113281 -3.5625 C 9.113281 -3.964844 8.96875 -4.308594 8.679688 -4.597656 C 8.386719 -4.886719 8.058594 -5.023438 7.644531 -5.023438 L 2.289062 -5.023438 C 1.875 -5.023438 1.542969 -4.886719 1.261719 -4.597656 C 0.972656 -4.296875 0.828125 -3.976562 0.828125 -3.582031 L 0.828125 -1.460938 C 0.828125 -1.054688 0.972656 -0.714844 1.261719 -0.425781 C 1.542969 -0.132812 1.886719 0 2.300781 0 L 7.652344 0 C 8.066406 0 8.398438 -0.132812 8.679688 -0.425781 C 8.96875 -0.726562 9.113281 -1.054688 9.113281 -1.460938 Z M 8.273438 -1.460938 "/></g></g></g><g fill="#ff1616" fill-opacity="1"><g transform="translate(178.916849, 14.995841)"><g><path d="M 1.855469 -4.007812 C 1.945312 -4.101562 2.0625 -4.164062 2.175781 -4.183594 L 9.113281 -4.183594 L 9.113281 -5.023438 L 2.300781 -5.023438 C 1.886719 -5.023438 1.542969 -4.886719 1.261719 -4.597656 C 0.972656 -4.296875 0.828125 -3.964844 0.828125 -3.5625 L 0.828125 -1.460938 C 0.828125 -1.054688 0.972656 -0.726562 1.261719 -0.425781 C 1.542969 -0.132812 1.886719 0 2.300781 0 L 9.113281 0 L 9.113281 -0.839844 L 2.175781 -0.839844 C 2.0625 -0.859375 1.945312 -0.921875 1.855469 -1.015625 C 1.730469 -1.140625 1.667969 -1.285156 1.667969 -1.460938 L 1.667969 -2.09375 L 8.234375 -2.09375 L 8.234375 -2.929688 L 1.667969 -2.929688 L 1.667969 -3.5625 C 1.667969 -3.738281 1.730469 -3.882812 1.855469 -4.007812 Z M 1.855469 -4.007812 "/></g></g></g><g fill="#ff00ff" fill-opacity="1"><g transform="translate(106.460367, 21.119143)"><g/></g></g><g fill="#00ffff" fill-opacity="1"><g transform="translate(107.637259, 20.75933)"><g/></g></g><g fill="#ff1616" fill-opacity="1"><g transform="translate(107.048813, 20.939237)"><g/></g></g></a></svg>
