<svg xmlns="http://www.w3.org/2000/svg" xmlns:xlink="http://www.w3.org/1999/xlink" width="280" zoomAndPan="magnify" viewBox="0 0 210 52.499999" height="70" preserveAspectRatio="xMidYMid meet" version="1.0"><defs><g/></defs><g fill="#ff00ff" fill-opacity="1"><g transform="translate(25.107911, 29.024451)"><g><path d="M 5.40625 0 C 7.484375 0 8.097656 -2.050781 8.773438 -4.617188 C 9.039062 -5.671875 9.496094 -7.761719 10.257812 -7.761719 L 10.257812 -9.703125 C 8.136719 -9.703125 7.484375 -7.472656 6.890625 -5.085938 C 6.640625 -4.0625 6.15625 -1.800781 5.40625 -1.800781 C 4.671875 -1.800781 4.199219 -3.964844 3.910156 -5.085938 C 3.285156 -7.609375 2.605469 -9.703125 0.554688 -9.703125 L 0.554688 -7.761719 C 1.304688 -7.761719 1.773438 -5.699219 2.039062 -4.617188 C 2.605469 -2.316406 3.285156 0 5.40625 0 Z M 5.40625 0 "/></g></g></g><g fill="#ff00ff" fill-opacity="1"><g transform="translate(35.918858, 29.024451)"><g><path d="M 0.554688 -7.761719 L 9.425781 -7.761719 L 9.425781 -9.703125 L 0.554688 -9.703125 Z M 6.929688 0 L 9.425781 0 L 9.425781 -1.941406 L 6.929688 -1.941406 C 6.40625 -1.941406 5.960938 -2.371094 5.960938 -2.910156 L 5.960938 -6.792969 L 4.035156 -6.792969 L 4.035156 -2.910156 C 4.035156 -1.316406 5.335938 0 6.929688 0 Z M 0.554688 0 L 4.019531 0 L 4.019531 -1.941406 L 0.554688 -1.941406 Z M 0.554688 0 "/></g></g></g><g fill="#ff00ff" fill-opacity="1"><g transform="translate(45.898199, 29.024451)"><g><path d="M 8.316406 -1.941406 L 10.257812 -1.941406 L 10.257812 -6.792969 C 10.257812 -8.402344 8.941406 -9.703125 7.347656 -9.703125 L 2.496094 -9.703125 L 2.496094 -7.761719 L 7.347656 -7.761719 C 7.875 -7.761719 8.316406 -7.332031 8.316406 -6.792969 Z M 3.464844 0 L 8.316406 0 L 8.316406 -1.941406 L 3.464844 -1.941406 C 2.925781 -1.941406 2.496094 -2.371094 2.496094 -2.910156 L 2.496094 -7.761719 L 0.554688 -7.761719 L 0.554688 -2.910156 C 0.554688 -1.304688 1.859375 0 3.464844 0 Z M 3.464844 0 "/></g></g></g><g fill="#ff00ff" fill-opacity="1"><g transform="translate(56.709147, 29.024451)"><g><path d="M 3.464844 0 L 9.425781 0 L 9.425781 -1.941406 L 3.464844 -1.941406 C 2.925781 -1.941406 2.496094 -2.371094 2.496094 -2.910156 L 2.496094 -9.703125 L 0.554688 -9.703125 L 0.554688 -2.910156 C 0.554688 -1.304688 1.859375 0 3.464844 0 Z M 3.464844 0 "/></g></g></g><g fill="#ff00ff" fill-opacity="1"><g transform="translate(66.688488, 29.024451)"><g><path d="M 2.496094 -7.761719 L 10.257812 -7.761719 L 10.257812 -9.703125 L 2.496094 -9.703125 Z M 3.464844 0 L 10.257812 0 L 10.257812 -1.941406 L 3.464844 -1.941406 C 2.9375 -1.941406 2.496094 -2.371094 2.496094 -2.910156 L 2.496094 -7.761719 L 0.554688 -7.761719 L 0.554688 -2.910156 C 0.554688 -1.316406 1.871094 0 3.464844 0 Z M 3.453125 -3.882812 L 9.289062 -3.882812 L 9.289062 -5.824219 L 3.453125 -5.824219 Z M 3.453125 -3.882812 "/></g></g></g><g fill="#ff00ff" fill-opacity="1"><g transform="translate(77.499435, 29.024451)"><g><path d="M 4.449219 0 L 6.378906 0 L 6.378906 -6.792969 C 6.378906 -8.402344 5.074219 -9.703125 3.464844 -9.703125 L 0.554688 -9.703125 L 0.554688 -7.761719 L 3.464844 -7.761719 C 4.007812 -7.761719 4.449219 -7.332031 4.449219 -6.792969 Z M 6.378906 -7.761719 L 10.257812 -7.761719 L 10.257812 -9.703125 L 6.378906 -9.703125 Z M 6.378906 -7.761719 "/></g></g></g><g fill="#ff00ff" fill-opacity="1"><g transform="translate(88.310383, 29.024451)"><g><path d="M 6.378906 0 C 8.082031 0 8.46875 -2.230469 8.804688 -4.089844 C 9.082031 -5.710938 9.496094 -7.761719 10.257812 -7.761719 L 10.257812 -9.703125 C 8.027344 -9.703125 7.417969 -7.292969 6.890625 -4.4375 C 6.777344 -3.769531 6.585938 -2.71875 6.378906 -2.21875 C 6.222656 -2.578125 5.976562 -3.785156 5.863281 -4.4375 C 5.335938 -7.265625 4.753906 -9.703125 2.496094 -9.703125 L 2.496094 -7.761719 C 3.285156 -7.761719 3.660156 -5.726562 3.949219 -4.089844 C 4.285156 -2.300781 4.65625 0 6.378906 0 Z M 0.554688 0 L 2.496094 0 L 2.496094 -7.761719 L 0.554688 -7.761719 Z M 10.257812 0 L 12.199219 0 L 12.199219 -7.761719 L 10.257812 -7.761719 Z M 10.257812 0 "/></g></g></g><g fill="#ff00ff" fill-opacity="1"><g transform="translate(101.061758, 29.024451)"><g><path d="M 8.316406 0 L 10.257812 0 L 10.257812 -6.792969 C 10.257812 -8.402344 8.941406 -9.703125 7.332031 -9.703125 L 2.480469 -9.703125 L 2.480469 -7.761719 L 7.332031 -7.761719 C 7.875 -7.761719 8.316406 -7.332031 8.316406 -6.792969 Z M 0.554688 0 L 2.480469 0 L 2.480469 -2.910156 L 7.347656 -2.910156 L 7.347656 -4.851562 L 2.480469 -4.851562 L 2.480469 -7.761719 L 0.554688 -7.761719 Z M 0.554688 0 "/></g></g></g><g fill="#ff00ff" fill-opacity="1"><g transform="translate(111.872706, 29.024451)"><g><path d="M 8.316406 0 L 10.257812 0 L 10.257812 -1.941406 C 10.257812 -2.6875 9.96875 -3.367188 9.511719 -3.882812 C 9.96875 -4.394531 10.257812 -5.074219 10.257812 -5.824219 L 10.257812 -6.792969 C 10.257812 -8.402344 8.957031 -9.703125 7.347656 -9.703125 L 2.496094 -9.703125 L 2.496094 -7.761719 L 7.347656 -7.761719 C 7.886719 -7.761719 8.316406 -7.332031 8.316406 -6.792969 L 8.316406 -5.824219 C 8.316406 -5.28125 7.886719 -4.851562 7.347656 -4.851562 L 3.464844 -4.851562 L 3.464844 -2.910156 L 7.347656 -2.910156 C 7.886719 -2.910156 8.316406 -2.480469 8.316406 -1.941406 Z M 0.554688 0 L 2.496094 0 L 2.496094 -7.761719 L 0.554688 -7.761719 Z M 0.554688 0 "/></g></g></g><g fill="#ff00ff" fill-opacity="1"><g transform="translate(122.683654, 29.024451)"><g><path d="M 0.554688 0 L 2.496094 0 L 2.496094 -9.703125 L 0.554688 -9.703125 Z M 7.902344 0 L 9.84375 0 L 9.84375 -1.941406 C 9.84375 -2.6875 9.550781 -3.367188 8.679688 -3.882812 C 9.550781 -4.394531 9.84375 -5.074219 9.84375 -6.238281 L 9.84375 -9.703125 L 7.902344 -9.703125 L 7.902344 -6.238281 C 7.902344 -5.28125 7.472656 -4.851562 6.515625 -4.851562 L 3.464844 -4.851562 L 3.464844 -2.910156 L 6.929688 -2.910156 C 7.472656 -2.910156 7.902344 -2.480469 7.902344 -1.941406 Z M 7.902344 0 "/></g></g></g><g fill="#ff00ff" fill-opacity="1"><g transform="translate(133.078793, 29.024451)"><g><path d="M 3.464844 -2.910156 L 7.359375 -2.910156 C 8.957031 -2.910156 10.257812 -4.226562 10.257812 -5.824219 L 10.257812 -6.792969 C 10.257812 -8.402344 8.957031 -9.703125 7.359375 -9.703125 L 2.496094 -9.703125 L 2.496094 -7.761719 L 7.359375 -7.761719 C 7.886719 -7.761719 8.332031 -7.332031 8.332031 -6.792969 L 8.332031 -5.824219 C 8.332031 -5.28125 7.886719 -4.851562 7.359375 -4.851562 L 3.464844 -4.851562 Z M 0.554688 0 L 2.496094 0 L 2.496094 -7.761719 L 0.554688 -7.761719 Z M 0.554688 0 "/></g></g></g><g fill="#ff00ff" fill-opacity="1"><g transform="translate(143.88974, 29.024451)"><g><path d="M 3.464844 0 L 9.425781 0 L 9.425781 -1.941406 L 3.464844 -1.941406 C 2.925781 -1.941406 2.496094 -2.371094 2.496094 -2.910156 L 2.496094 -9.703125 L 0.554688 -9.703125 L 0.554688 -2.910156 C 0.554688 -1.304688 1.859375 0 3.464844 0 Z M 3.464844 0 "/></g></g></g><g fill="#ff00ff" fill-opacity="1"><g transform="translate(153.869081, 29.024451)"><g><path d="M 8.316406 0 L 10.257812 0 L 10.257812 -6.792969 C 10.257812 -8.402344 8.941406 -9.703125 7.332031 -9.703125 L 2.480469 -9.703125 L 2.480469 -7.761719 L 7.332031 -7.761719 C 7.875 -7.761719 8.316406 -7.332031 8.316406 -6.792969 Z M 0.554688 0 L 2.480469 0 L 2.480469 -2.910156 L 7.347656 -2.910156 L 7.347656 -4.851562 L 2.480469 -4.851562 L 2.480469 -7.761719 L 0.554688 -7.761719 Z M 0.554688 0 "/></g></g></g><g fill="#ff00ff" fill-opacity="1"><g transform="translate(164.680029, 29.024451)"><g><path d="M 0.554688 -1.941406 L 2.496094 -1.941406 L 2.496094 -6.792969 C 2.496094 -7.332031 2.925781 -7.761719 3.464844 -7.761719 L 8.316406 -7.761719 L 8.316406 -9.703125 L 3.464844 -9.703125 C 1.859375 -9.703125 0.554688 -8.402344 0.554688 -6.792969 Z M 8.316406 -5.824219 L 10.257812 -5.824219 L 10.257812 -7.761719 L 8.316406 -7.761719 Z M 2.496094 0 L 10.257812 0 L 10.257812 -2.910156 L 8.316406 -2.910156 L 8.316406 -1.941406 L 2.496094 -1.941406 Z M 2.496094 0 "/></g></g></g><g fill="#ff00ff" fill-opacity="1"><g transform="translate(175.490977, 29.024451)"><g><path d="M 2.496094 -7.761719 L 10.257812 -7.761719 L 10.257812 -9.703125 L 2.496094 -9.703125 Z M 3.464844 0 L 10.257812 0 L 10.257812 -1.941406 L 3.464844 -1.941406 C 2.9375 -1.941406 2.496094 -2.371094 2.496094 -2.910156 L 2.496094 -7.761719 L 0.554688 -7.761719 L 0.554688 -2.910156 C 0.554688 -1.316406 1.871094 0 3.464844 0 Z M 3.453125 -3.882812 L 9.289062 -3.882812 L 9.289062 -5.824219 L 3.453125 -5.824219 Z M 3.453125 -3.882812 "/></g></g></g><g fill="#00ffff" fill-opacity="1"><g transform="translate(23.690075, 29.715976)"><g><path d="M 5.40625 0 C 7.484375 0 8.097656 -2.050781 8.773438 -4.617188 C 9.039062 -5.671875 9.496094 -7.761719 10.257812 -7.761719 L 10.257812 -9.703125 C 8.136719 -9.703125 7.484375 -7.472656 6.890625 -5.085938 C 6.640625 -4.0625 6.15625 -1.800781 5.40625 -1.800781 C 4.671875 -1.800781 4.199219 -3.964844 3.910156 -5.085938 C 3.285156 -7.609375 2.605469 -9.703125 0.554688 -9.703125 L 0.554688 -7.761719 C 1.304688 -7.761719 1.773438 -5.699219 2.039062 -4.617188 C 2.605469 -2.316406 3.285156 0 5.40625 0 Z M 5.40625 0 "/></g></g></g><g fill="#00ffff" fill-opacity="1"><g transform="translate(34.501023, 29.715976)"><g><path d="M 0.554688 -7.761719 L 9.425781 -7.761719 L 9.425781 -9.703125 L 0.554688 -9.703125 Z M 6.929688 0 L 9.425781 0 L 9.425781 -1.941406 L 6.929688 -1.941406 C 6.40625 -1.941406 5.960938 -2.371094 5.960938 -2.910156 L 5.960938 -6.792969 L 4.035156 -6.792969 L 4.035156 -2.910156 C 4.035156 -1.316406 5.335938 0 6.929688 0 Z M 0.554688 0 L 4.019531 0 L 4.019531 -1.941406 L 0.554688 -1.941406 Z M 0.554688 0 "/></g></g></g><g fill="#00ffff" fill-opacity="1"><g transform="translate(44.480363, 29.715976)"><g><path d="M 8.316406 -1.941406 L 10.257812 -1.941406 L 10.257812 -6.792969 C 10.257812 -8.402344 8.941406 -9.703125 7.347656 -9.703125 L 2.496094 -9.703125 L 2.496094 -7.761719 L 7.347656 -7.761719 C 7.875 -7.761719 8.316406 -7.332031 8.316406 -6.792969 Z M 3.464844 0 L 8.316406 0 L 8.316406 -1.941406 L 3.464844 -1.941406 C 2.925781 -1.941406 2.496094 -2.371094 2.496094 -2.910156 L 2.496094 -7.761719 L 0.554688 -7.761719 L 0.554688 -2.910156 C 0.554688 -1.304688 1.859375 0 3.464844 0 Z M 3.464844 0 "/></g></g></g><g fill="#00ffff" fill-opacity="1"><g transform="translate(55.291311, 29.715976)"><g><path d="M 3.464844 0 L 9.425781 0 L 9.425781 -1.941406 L 3.464844 -1.941406 C 2.925781 -1.941406 2.496094 -2.371094 2.496094 -2.910156 L 2.496094 -9.703125 L 0.554688 -9.703125 L 0.554688 -2.910156 C 0.554688 -1.304688 1.859375 0 3.464844 0 Z M 3.464844 0 "/></g></g></g><g fill="#00ffff" fill-opacity="1"><g transform="translate(65.270652, 29.715976)"><g><path d="M 2.496094 -7.761719 L 10.257812 -7.761719 L 10.257812 -9.703125 L 2.496094 -9.703125 Z M 3.464844 0 L 10.257812 0 L 10.257812 -1.941406 L 3.464844 -1.941406 C 2.9375 -1.941406 2.496094 -2.371094 2.496094 -2.910156 L 2.496094 -7.761719 L 0.554688 -7.761719 L 0.554688 -2.910156 C 0.554688 -1.316406 1.871094 0 3.464844 0 Z M 3.453125 -3.882812 L 9.289062 -3.882812 L 9.289062 -5.824219 L 3.453125 -5.824219 Z M 3.453125 -3.882812 "/></g></g></g><g fill="#00ffff" fill-opacity="1"><g transform="translate(76.0816, 29.715976)"><g><path d="M 4.449219 0 L 6.378906 0 L 6.378906 -6.792969 C 6.378906 -8.402344 5.074219 -9.703125 3.464844 -9.703125 L 0.554688 -9.703125 L 0.554688 -7.761719 L 3.464844 -7.761719 C 4.007812 -7.761719 4.449219 -7.332031 4.449219 -6.792969 Z M 6.378906 -7.761719 L 10.257812 -7.761719 L 10.257812 -9.703125 L 6.378906 -9.703125 Z M 6.378906 -7.761719 "/></g></g></g><g fill="#00ffff" fill-opacity="1"><g transform="translate(86.892547, 29.715976)"><g><path d="M 6.378906 0 C 8.082031 0 8.46875 -2.230469 8.804688 -4.089844 C 9.082031 -5.710938 9.496094 -7.761719 10.257812 -7.761719 L 10.257812 -9.703125 C 8.027344 -9.703125 7.417969 -7.292969 6.890625 -4.4375 C 6.777344 -3.769531 6.585938 -2.71875 6.378906 -2.21875 C 6.222656 -2.578125 5.976562 -3.785156 5.863281 -4.4375 C 5.335938 -7.265625 4.753906 -9.703125 2.496094 -9.703125 L 2.496094 -7.761719 C 3.285156 -7.761719 3.660156 -5.726562 3.949219 -4.089844 C 4.285156 -2.300781 4.65625 0 6.378906 0 Z M 0.554688 0 L 2.496094 0 L 2.496094 -7.761719 L 0.554688 -7.761719 Z M 10.257812 0 L 12.199219 0 L 12.199219 -7.761719 L 10.257812 -7.761719 Z M 10.257812 0 "/></g></g></g><g fill="#00ffff" fill-opacity="1"><g transform="translate(99.643923, 29.715976)"><g><path d="M 8.316406 0 L 10.257812 0 L 10.257812 -6.792969 C 10.257812 -8.402344 8.941406 -9.703125 7.332031 -9.703125 L 2.480469 -9.703125 L 2.480469 -7.761719 L 7.332031 -7.761719 C 7.875 -7.761719 8.316406 -7.332031 8.316406 -6.792969 Z M 0.554688 0 L 2.480469 0 L 2.480469 -2.910156 L 7.347656 -2.910156 L 7.347656 -4.851562 L 2.480469 -4.851562 L 2.480469 -7.761719 L 0.554688 -7.761719 Z M 0.554688 0 "/></g></g></g><g fill="#00ffff" fill-opacity="1"><g transform="translate(110.45487, 29.715976)"><g><path d="M 8.316406 0 L 10.257812 0 L 10.257812 -1.941406 C 10.257812 -2.6875 9.96875 -3.367188 9.511719 -3.882812 C 9.96875 -4.394531 10.257812 -5.074219 10.257812 -5.824219 L 10.257812 -6.792969 C 10.257812 -8.402344 8.957031 -9.703125 7.347656 -9.703125 L 2.496094 -9.703125 L 2.496094 -7.761719 L 7.347656 -7.761719 C 7.886719 -7.761719 8.316406 -7.332031 8.316406 -6.792969 L 8.316406 -5.824219 C 8.316406 -5.28125 7.886719 -4.851562 7.347656 -4.851562 L 3.464844 -4.851562 L 3.464844 -2.910156 L 7.347656 -2.910156 C 7.886719 -2.910156 8.316406 -2.480469 8.316406 -1.941406 Z M 0.554688 0 L 2.496094 0 L 2.496094 -7.761719 L 0.554688 -7.761719 Z M 0.554688 0 "/></g></g></g><g fill="#00ffff" fill-opacity="1"><g transform="translate(121.265818, 29.715976)"><g><path d="M 0.554688 0 L 2.496094 0 L 2.496094 -9.703125 L 0.554688 -9.703125 Z M 7.902344 0 L 9.84375 0 L 9.84375 -1.941406 C 9.84375 -2.6875 9.550781 -3.367188 8.679688 -3.882812 C 9.550781 -4.394531 9.84375 -5.074219 9.84375 -6.238281 L 9.84375 -9.703125 L 7.902344 -9.703125 L 7.902344 -6.238281 C 7.902344 -5.28125 7.472656 -4.851562 6.515625 -4.851562 L 3.464844 -4.851562 L 3.464844 -2.910156 L 6.929688 -2.910156 C 7.472656 -2.910156 7.902344 -2.480469 7.902344 -1.941406 Z M 7.902344 0 "/></g></g></g><g fill="#00ffff" fill-opacity="1"><g transform="translate(131.660957, 29.715976)"><g><path d="M 3.464844 -2.910156 L 7.359375 -2.910156 C 8.957031 -2.910156 10.257812 -4.226562 10.257812 -5.824219 L 10.257812 -6.792969 C 10.257812 -8.402344 8.957031 -9.703125 7.359375 -9.703125 L 2.496094 -9.703125 L 2.496094 -7.761719 L 7.359375 -7.761719 C 7.886719 -7.761719 8.332031 -7.332031 8.332031 -6.792969 L 8.332031 -5.824219 C 8.332031 -5.28125 7.886719 -4.851562 7.359375 -4.851562 L 3.464844 -4.851562 Z M 0.554688 0 L 2.496094 0 L 2.496094 -7.761719 L 0.554688 -7.761719 Z M 0.554688 0 "/></g></g></g><g fill="#00ffff" fill-opacity="1"><g transform="translate(142.471904, 29.715976)"><g><path d="M 3.464844 0 L 9.425781 0 L 9.425781 -1.941406 L 3.464844 -1.941406 C 2.925781 -1.941406 2.496094 -2.371094 2.496094 -2.910156 L 2.496094 -9.703125 L 0.554688 -9.703125 L 0.554688 -2.910156 C 0.554688 -1.304688 1.859375 0 3.464844 0 Z M 3.464844 0 "/></g></g></g><g fill="#00ffff" fill-opacity="1"><g transform="translate(152.451245, 29.715976)"><g><path d="M 8.316406 0 L 10.257812 0 L 10.257812 -6.792969 C 10.257812 -8.402344 8.941406 -9.703125 7.332031 -9.703125 L 2.480469 -9.703125 L 2.480469 -7.761719 L 7.332031 -7.761719 C 7.875 -7.761719 8.316406 -7.332031 8.316406 -6.792969 Z M 0.554688 0 L 2.480469 0 L 2.480469 -2.910156 L 7.347656 -2.910156 L 7.347656 -4.851562 L 2.480469 -4.851562 L 2.480469 -7.761719 L 0.554688 -7.761719 Z M 0.554688 0 "/></g></g></g><g fill="#00ffff" fill-opacity="1"><g transform="translate(163.262193, 29.715976)"><g><path d="M 0.554688 -1.941406 L 2.496094 -1.941406 L 2.496094 -6.792969 C 2.496094 -7.332031 2.925781 -7.761719 3.464844 -7.761719 L 8.316406 -7.761719 L 8.316406 -9.703125 L 3.464844 -9.703125 C 1.859375 -9.703125 0.554688 -8.402344 0.554688 -6.792969 Z M 8.316406 -5.824219 L 10.257812 -5.824219 L 10.257812 -7.761719 L 8.316406 -7.761719 Z M 2.496094 0 L 10.257812 0 L 10.257812 -2.910156 L 8.316406 -2.910156 L 8.316406 -1.941406 L 2.496094 -1.941406 Z M 2.496094 0 "/></g></g></g><g fill="#00ffff" fill-opacity="1"><g transform="translate(174.073141, 29.715976)"><g><path d="M 2.496094 -7.761719 L 10.257812 -7.761719 L 10.257812 -9.703125 L 2.496094 -9.703125 Z M 3.464844 0 L 10.257812 0 L 10.257812 -1.941406 L 3.464844 -1.941406 C 2.9375 -1.941406 2.496094 -2.371094 2.496094 -2.910156 L 2.496094 -7.761719 L 0.554688 -7.761719 L 0.554688 -2.910156 C 0.554688 -1.316406 1.871094 0 3.464844 0 Z M 3.453125 -3.882812 L 9.289062 -3.882812 L 9.289062 -5.824219 L 3.453125 -5.824219 Z M 3.453125 -3.882812 "/></g></g></g><g fill="#dc3c4d" fill-opacity="1"><g transform="translate(24.398993, 29.370213)"><g><path d="M 5.40625 0 C 7.484375 0 8.097656 -2.050781 8.773438 -4.617188 C 9.039062 -5.671875 9.496094 -7.761719 10.257812 -7.761719 L 10.257812 -9.703125 C 8.136719 -9.703125 7.484375 -7.472656 6.890625 -5.085938 C 6.640625 -4.0625 6.15625 -1.800781 5.40625 -1.800781 C 4.671875 -1.800781 4.199219 -3.964844 3.910156 -5.085938 C 3.285156 -7.609375 2.605469 -9.703125 0.554688 -9.703125 L 0.554688 -7.761719 C 1.304688 -7.761719 1.773438 -5.699219 2.039062 -4.617188 C 2.605469 -2.316406 3.285156 0 5.40625 0 Z M 5.40625 0 "/></g></g></g><g fill="#dc3c4d" fill-opacity="1"><g transform="translate(35.209941, 29.370213)"><g><path d="M 0.554688 -7.761719 L 9.425781 -7.761719 L 9.425781 -9.703125 L 0.554688 -9.703125 Z M 6.929688 0 L 9.425781 0 L 9.425781 -1.941406 L 6.929688 -1.941406 C 6.40625 -1.941406 5.960938 -2.371094 5.960938 -2.910156 L 5.960938 -6.792969 L 4.035156 -6.792969 L 4.035156 -2.910156 C 4.035156 -1.316406 5.335938 0 6.929688 0 Z M 0.554688 0 L 4.019531 0 L 4.019531 -1.941406 L 0.554688 -1.941406 Z M 0.554688 0 "/></g></g></g><g fill="#dc3c4d" fill-opacity="1"><g transform="translate(45.189281, 29.370213)"><g><path d="M 8.316406 -1.941406 L 10.257812 -1.941406 L 10.257812 -6.792969 C 10.257812 -8.402344 8.941406 -9.703125 7.347656 -9.703125 L 2.496094 -9.703125 L 2.496094 -7.761719 L 7.347656 -7.761719 C 7.875 -7.761719 8.316406 -7.332031 8.316406 -6.792969 Z M 3.464844 0 L 8.316406 0 L 8.316406 -1.941406 L 3.464844 -1.941406 C 2.925781 -1.941406 2.496094 -2.371094 2.496094 -2.910156 L 2.496094 -7.761719 L 0.554688 -7.761719 L 0.554688 -2.910156 C 0.554688 -1.304688 1.859375 0 3.464844 0 Z M 3.464844 0 "/></g></g></g><g fill="#dc3c4d" fill-opacity="1"><g transform="translate(56.000229, 29.370213)"><g><path d="M 3.464844 0 L 9.425781 0 L 9.425781 -1.941406 L 3.464844 -1.941406 C 2.925781 -1.941406 2.496094 -2.371094 2.496094 -2.910156 L 2.496094 -9.703125 L 0.554688 -9.703125 L 0.554688 -2.910156 C 0.554688 -1.304688 1.859375 0 3.464844 0 Z M 3.464844 0 "/></g></g></g><g fill="#dc3c4d" fill-opacity="1"><g transform="translate(65.97957, 29.370213)"><g><path d="M 2.496094 -7.761719 L 10.257812 -7.761719 L 10.257812 -9.703125 L 2.496094 -9.703125 Z M 3.464844 0 L 10.257812 0 L 10.257812 -1.941406 L 3.464844 -1.941406 C 2.9375 -1.941406 2.496094 -2.371094 2.496094 -2.910156 L 2.496094 -7.761719 L 0.554688 -7.761719 L 0.554688 -2.910156 C 0.554688 -1.316406 1.871094 0 3.464844 0 Z M 3.453125 -3.882812 L 9.289062 -3.882812 L 9.289062 -5.824219 L 3.453125 -5.824219 Z M 3.453125 -3.882812 "/></g></g></g><g fill="#dc3c4d" fill-opacity="1"><g transform="translate(76.790518, 29.370213)"><g><path d="M 4.449219 0 L 6.378906 0 L 6.378906 -6.792969 C 6.378906 -8.402344 5.074219 -9.703125 3.464844 -9.703125 L 0.554688 -9.703125 L 0.554688 -7.761719 L 3.464844 -7.761719 C 4.007812 -7.761719 4.449219 -7.332031 4.449219 -6.792969 Z M 6.378906 -7.761719 L 10.257812 -7.761719 L 10.257812 -9.703125 L 6.378906 -9.703125 Z M 6.378906 -7.761719 "/></g></g></g><g fill="#dc3c4d" fill-opacity="1"><g transform="translate(87.601465, 29.370213)"><g><path d="M 6.378906 0 C 8.082031 0 8.46875 -2.230469 8.804688 -4.089844 C 9.082031 -5.710938 9.496094 -7.761719 10.257812 -7.761719 L 10.257812 -9.703125 C 8.027344 -9.703125 7.417969 -7.292969 6.890625 -4.4375 C 6.777344 -3.769531 6.585938 -2.71875 6.378906 -2.21875 C 6.222656 -2.578125 5.976562 -3.785156 5.863281 -4.4375 C 5.335938 -7.265625 4.753906 -9.703125 2.496094 -9.703125 L 2.496094 -7.761719 C 3.285156 -7.761719 3.660156 -5.726562 3.949219 -4.089844 C 4.285156 -2.300781 4.65625 0 6.378906 0 Z M 0.554688 0 L 2.496094 0 L 2.496094 -7.761719 L 0.554688 -7.761719 Z M 10.257812 0 L 12.199219 0 L 12.199219 -7.761719 L 10.257812 -7.761719 Z M 10.257812 0 "/></g></g></g><g fill="#dc3c4d" fill-opacity="1"><g transform="translate(100.352841, 29.370213)"><g><path d="M 8.316406 0 L 10.257812 0 L 10.257812 -6.792969 C 10.257812 -8.402344 8.941406 -9.703125 7.332031 -9.703125 L 2.480469 -9.703125 L 2.480469 -7.761719 L 7.332031 -7.761719 C 7.875 -7.761719 8.316406 -7.332031 8.316406 -6.792969 Z M 0.554688 0 L 2.480469 0 L 2.480469 -2.910156 L 7.347656 -2.910156 L 7.347656 -4.851562 L 2.480469 -4.851562 L 2.480469 -7.761719 L 0.554688 -7.761719 Z M 0.554688 0 "/></g></g></g><g fill="#dc3c4d" fill-opacity="1"><g transform="translate(111.163788, 29.370213)"><g><path d="M 8.316406 0 L 10.257812 0 L 10.257812 -1.941406 C 10.257812 -2.6875 9.96875 -3.367188 9.511719 -3.882812 C 9.96875 -4.394531 10.257812 -5.074219 10.257812 -5.824219 L 10.257812 -6.792969 C 10.257812 -8.402344 8.957031 -9.703125 7.347656 -9.703125 L 2.496094 -9.703125 L 2.496094 -7.761719 L 7.347656 -7.761719 C 7.886719 -7.761719 8.316406 -7.332031 8.316406 -6.792969 L 8.316406 -5.824219 C 8.316406 -5.28125 7.886719 -4.851562 7.347656 -4.851562 L 3.464844 -4.851562 L 3.464844 -2.910156 L 7.347656 -2.910156 C 7.886719 -2.910156 8.316406 -2.480469 8.316406 -1.941406 Z M 0.554688 0 L 2.496094 0 L 2.496094 -7.761719 L 0.554688 -7.761719 Z M 0.554688 0 "/></g></g></g><g fill="#dc3c4d" fill-opacity="1"><g transform="translate(121.974736, 29.370213)"><g><path d="M 0.554688 0 L 2.496094 0 L 2.496094 -9.703125 L 0.554688 -9.703125 Z M 7.902344 0 L 9.84375 0 L 9.84375 -1.941406 C 9.84375 -2.6875 9.550781 -3.367188 8.679688 -3.882812 C 9.550781 -4.394531 9.84375 -5.074219 9.84375 -6.238281 L 9.84375 -9.703125 L 7.902344 -9.703125 L 7.902344 -6.238281 C 7.902344 -5.28125 7.472656 -4.851562 6.515625 -4.851562 L 3.464844 -4.851562 L 3.464844 -2.910156 L 6.929688 -2.910156 C 7.472656 -2.910156 7.902344 -2.480469 7.902344 -1.941406 Z M 7.902344 0 "/></g></g></g><g fill="#dc3c4d" fill-opacity="1"><g transform="translate(132.369875, 29.370213)"><g><path d="M 3.464844 -2.910156 L 7.359375 -2.910156 C 8.957031 -2.910156 10.257812 -4.226562 10.257812 -5.824219 L 10.257812 -6.792969 C 10.257812 -8.402344 8.957031 -9.703125 7.359375 -9.703125 L 2.496094 -9.703125 L 2.496094 -7.761719 L 7.359375 -7.761719 C 7.886719 -7.761719 8.332031 -7.332031 8.332031 -6.792969 L 8.332031 -5.824219 C 8.332031 -5.28125 7.886719 -4.851562 7.359375 -4.851562 L 3.464844 -4.851562 Z M 0.554688 0 L 2.496094 0 L 2.496094 -7.761719 L 0.554688 -7.761719 Z M 0.554688 0 "/></g></g></g><g fill="#dc3c4d" fill-opacity="1"><g transform="translate(143.180823, 29.370213)"><g><path d="M 3.464844 0 L 9.425781 0 L 9.425781 -1.941406 L 3.464844 -1.941406 C 2.925781 -1.941406 2.496094 -2.371094 2.496094 -2.910156 L 2.496094 -9.703125 L 0.554688 -9.703125 L 0.554688 -2.910156 C 0.554688 -1.304688 1.859375 0 3.464844 0 Z M 3.464844 0 "/></g></g></g><g fill="#dc3c4d" fill-opacity="1"><g transform="translate(153.160163, 29.370213)"><g><path d="M 8.316406 0 L 10.257812 0 L 10.257812 -6.792969 C 10.257812 -8.402344 8.941406 -9.703125 7.332031 -9.703125 L 2.480469 -9.703125 L 2.480469 -7.761719 L 7.332031 -7.761719 C 7.875 -7.761719 8.316406 -7.332031 8.316406 -6.792969 Z M 0.554688 0 L 2.480469 0 L 2.480469 -2.910156 L 7.347656 -2.910156 L 7.347656 -4.851562 L 2.480469 -4.851562 L 2.480469 -7.761719 L 0.554688 -7.761719 Z M 0.554688 0 "/></g></g></g><g fill="#dc3c4d" fill-opacity="1"><g transform="translate(163.971111, 29.370213)"><g><path d="M 0.554688 -1.941406 L 2.496094 -1.941406 L 2.496094 -6.792969 C 2.496094 -7.332031 2.925781 -7.761719 3.464844 -7.761719 L 8.316406 -7.761719 L 8.316406 -9.703125 L 3.464844 -9.703125 C 1.859375 -9.703125 0.554688 -8.402344 0.554688 -6.792969 Z M 8.316406 -5.824219 L 10.257812 -5.824219 L 10.257812 -7.761719 L 8.316406 -7.761719 Z M 2.496094 0 L 10.257812 0 L 10.257812 -2.910156 L 8.316406 -2.910156 L 8.316406 -1.941406 L 2.496094 -1.941406 Z M 2.496094 0 "/></g></g></g><g fill="#dc3c4d" fill-opacity="1"><g transform="translate(174.782059, 29.370213)"><g><path d="M 2.496094 -7.761719 L 10.257812 -7.761719 L 10.257812 -9.703125 L 2.496094 -9.703125 Z M 3.464844 0 L 10.257812 0 L 10.257812 -1.941406 L 3.464844 -1.941406 C 2.9375 -1.941406 2.496094 -2.371094 2.496094 -2.910156 L 2.496094 -7.761719 L 0.554688 -7.761719 L 0.554688 -2.910156 C 0.554688 -1.316406 1.871094 0 3.464844 0 Z M 3.453125 -3.882812 L 9.289062 -3.882812 L 9.289062 -5.824219 L 3.453125 -5.824219 Z M 3.453125 -3.882812 "/></g></g></g></svg>